<mxfile host="app.diagrams.net" agent="Mozilla/5.0 (Windows NT 10.0; Win64; x64) AppleWebKit/537.36 (KHTML, like Gecko) Chrome/135.0.0.0 Safari/537.36" version="26.2.14">
  <diagram name="Page-1" id="AP3PwyIBYEHTXhKrnfDw">
    <mxGraphModel dx="4980" dy="3094" grid="1" gridSize="10" guides="1" tooltips="1" connect="1" arrows="1" fold="1" page="1" pageScale="1" pageWidth="850" pageHeight="1100" math="0" shadow="0">
      <root>
        <mxCell id="0" />
        <mxCell id="1" parent="0" />
        <mxCell id="e9kwcE6qGJaGFsyXPlPn-1" value="" style="shape=umlLifeline;perimeter=lifelinePerimeter;whiteSpace=wrap;html=1;container=1;dropTarget=0;collapsible=0;recursiveResize=0;outlineConnect=0;portConstraint=eastwest;newEdgeStyle={&quot;curved&quot;:0,&quot;rounded&quot;:0};participant=umlActor;" vertex="1" parent="1">
          <mxGeometry x="-850" y="-40" width="30" height="2040" as="geometry" />
        </mxCell>
        <mxCell id="e9kwcE6qGJaGFsyXPlPn-2" value="Professor" style="text;html=1;align=center;verticalAlign=middle;resizable=0;points=[];autosize=1;strokeColor=none;fillColor=none;fontSize=14;fontStyle=1" vertex="1" parent="1">
          <mxGeometry x="-875" y="-72" width="80" height="30" as="geometry" />
        </mxCell>
        <mxCell id="e9kwcE6qGJaGFsyXPlPn-4" value="professor-homepage" style="shape=umlLifeline;perimeter=lifelinePerimeter;whiteSpace=wrap;html=1;container=1;dropTarget=0;collapsible=0;recursiveResize=0;outlineConnect=0;portConstraint=eastwest;newEdgeStyle={&quot;curved&quot;:0,&quot;rounded&quot;:0};fontSize=14;fontStyle=1" vertex="1" parent="1">
          <mxGeometry x="-720" y="-42" width="160" height="2042" as="geometry" />
        </mxCell>
        <mxCell id="e9kwcE6qGJaGFsyXPlPn-5" value="" style="html=1;points=[[0,0,0,0,5],[0,1,0,0,-5],[1,0,0,0,5],[1,1,0,0,-5]];perimeter=orthogonalPerimeter;outlineConnect=0;targetShapes=umlLifeline;portConstraint=eastwest;newEdgeStyle={&quot;curved&quot;:0,&quot;rounded&quot;:0};strokeColor=#000000;fillColor=#dae8fc;" vertex="1" parent="e9kwcE6qGJaGFsyXPlPn-4">
          <mxGeometry x="75" y="82" width="10" height="98" as="geometry" />
        </mxCell>
        <mxCell id="e9kwcE6qGJaGFsyXPlPn-6" value="Selects&amp;nbsp;&lt;div&gt;&quot;ViewSupervisedTraineeships&quot;&lt;/div&gt;" style="text;html=1;align=center;verticalAlign=middle;resizable=0;points=[];autosize=1;strokeColor=none;fillColor=none;fontSize=13;fontStyle=2" vertex="1" parent="1">
          <mxGeometry x="-835" y="30" width="200" height="40" as="geometry" />
        </mxCell>
        <mxCell id="e9kwcE6qGJaGFsyXPlPn-7" value="" style="endArrow=classic;html=1;rounded=0;" edge="1" parent="1" source="e9kwcE6qGJaGFsyXPlPn-1">
          <mxGeometry width="50" height="50" relative="1" as="geometry">
            <mxPoint x="-825.5" y="70" as="sourcePoint" />
            <mxPoint x="-645" y="70" as="targetPoint" />
          </mxGeometry>
        </mxCell>
        <mxCell id="e9kwcE6qGJaGFsyXPlPn-9" value="ProfessorController" style="shape=umlLifeline;perimeter=lifelinePerimeter;whiteSpace=wrap;html=1;container=1;dropTarget=0;collapsible=0;recursiveResize=0;outlineConnect=0;portConstraint=eastwest;newEdgeStyle={&quot;curved&quot;:0,&quot;rounded&quot;:0};fontSize=14;fontStyle=1" vertex="1" parent="1">
          <mxGeometry x="-510" y="-40" width="140" height="2040" as="geometry" />
        </mxCell>
        <mxCell id="e9kwcE6qGJaGFsyXPlPn-10" value="" style="html=1;points=[[0,0,0,0,5],[0,1,0,0,-5],[1,0,0,0,5],[1,1,0,0,-5]];perimeter=orthogonalPerimeter;outlineConnect=0;targetShapes=umlLifeline;portConstraint=eastwest;newEdgeStyle={&quot;curved&quot;:0,&quot;rounded&quot;:0};strokeColor=#000000;fillColor=#dae8fc;" vertex="1" parent="e9kwcE6qGJaGFsyXPlPn-9">
          <mxGeometry x="65" y="110" width="10" height="210" as="geometry" />
        </mxCell>
        <mxCell id="e9kwcE6qGJaGFsyXPlPn-42" value="" style="html=1;points=[[0,0,0,0,5],[0,1,0,0,-5],[1,0,0,0,5],[1,1,0,0,-5]];perimeter=orthogonalPerimeter;outlineConnect=0;targetShapes=umlLifeline;portConstraint=eastwest;newEdgeStyle={&quot;curved&quot;:0,&quot;rounded&quot;:0};strokeColor=#000000;fillColor=#dae8fc;" vertex="1" parent="e9kwcE6qGJaGFsyXPlPn-9">
          <mxGeometry x="65" y="390" width="10" height="78" as="geometry" />
        </mxCell>
        <mxCell id="e9kwcE6qGJaGFsyXPlPn-107" value="" style="html=1;points=[[0,0,0,0,5],[0,1,0,0,-5],[1,0,0,0,5],[1,1,0,0,-5]];perimeter=orthogonalPerimeter;outlineConnect=0;targetShapes=umlLifeline;portConstraint=eastwest;newEdgeStyle={&quot;curved&quot;:0,&quot;rounded&quot;:0};strokeColor=#000000;fillColor=#dae8fc;" vertex="1" parent="e9kwcE6qGJaGFsyXPlPn-9">
          <mxGeometry x="65" y="1230" width="10" height="50" as="geometry" />
        </mxCell>
        <mxCell id="e9kwcE6qGJaGFsyXPlPn-116" value="" style="html=1;points=[[0,0,0,0,5],[0,1,0,0,-5],[1,0,0,0,5],[1,1,0,0,-5]];perimeter=orthogonalPerimeter;outlineConnect=0;targetShapes=umlLifeline;portConstraint=eastwest;newEdgeStyle={&quot;curved&quot;:0,&quot;rounded&quot;:0};strokeColor=#000000;fillColor=#dae8fc;" vertex="1" parent="e9kwcE6qGJaGFsyXPlPn-9">
          <mxGeometry x="65" y="1400" width="10" height="90" as="geometry" />
        </mxCell>
        <mxCell id="e9kwcE6qGJaGFsyXPlPn-14" value="" style="endArrow=classic;html=1;rounded=0;" edge="1" parent="1" source="e9kwcE6qGJaGFsyXPlPn-5" target="e9kwcE6qGJaGFsyXPlPn-9">
          <mxGeometry width="50" height="50" relative="1" as="geometry">
            <mxPoint x="-550" y="290" as="sourcePoint" />
            <mxPoint x="-500" y="240" as="targetPoint" />
          </mxGeometry>
        </mxCell>
        <mxCell id="e9kwcE6qGJaGFsyXPlPn-15" value="showInProgressTraineeships()" style="text;html=1;align=center;verticalAlign=middle;resizable=0;points=[];autosize=1;strokeColor=none;fillColor=none;fontSize=13;fontStyle=2" vertex="1" parent="1">
          <mxGeometry x="-645" y="60" width="200" height="30" as="geometry" />
        </mxCell>
        <mxCell id="e9kwcE6qGJaGFsyXPlPn-16" value="ProfessorService" style="shape=umlLifeline;perimeter=lifelinePerimeter;whiteSpace=wrap;html=1;container=1;dropTarget=0;collapsible=0;recursiveResize=0;outlineConnect=0;portConstraint=eastwest;newEdgeStyle={&quot;curved&quot;:0,&quot;rounded&quot;:0};fontSize=14;fontStyle=1" vertex="1" parent="1">
          <mxGeometry x="-260" y="-42" width="140" height="2032" as="geometry" />
        </mxCell>
        <mxCell id="e9kwcE6qGJaGFsyXPlPn-17" value="" style="html=1;points=[[0,0,0,0,5],[0,1,0,0,-5],[1,0,0,0,5],[1,1,0,0,-5]];perimeter=orthogonalPerimeter;outlineConnect=0;targetShapes=umlLifeline;portConstraint=eastwest;newEdgeStyle={&quot;curved&quot;:0,&quot;rounded&quot;:0};strokeColor=#000000;fillColor=#dae8fc;" vertex="1" parent="e9kwcE6qGJaGFsyXPlPn-16">
          <mxGeometry x="65" y="130" width="10" height="140" as="geometry" />
        </mxCell>
        <mxCell id="e9kwcE6qGJaGFsyXPlPn-20" value="findInProgressPositionsForProfessor()" style="text;html=1;align=center;verticalAlign=middle;resizable=0;points=[];autosize=1;strokeColor=none;fillColor=none;fontSize=13;fontStyle=2" vertex="1" parent="1">
          <mxGeometry x="-430" y="90" width="240" height="30" as="geometry" />
        </mxCell>
        <mxCell id="e9kwcE6qGJaGFsyXPlPn-21" value="" style="endArrow=classic;html=1;rounded=0;" edge="1" parent="1" target="e9kwcE6qGJaGFsyXPlPn-17">
          <mxGeometry width="50" height="50" relative="1" as="geometry">
            <mxPoint x="-440.5" y="119" as="sourcePoint" />
            <mxPoint x="-215" y="119" as="targetPoint" />
          </mxGeometry>
        </mxCell>
        <mxCell id="e9kwcE6qGJaGFsyXPlPn-22" value="Professor" style="shape=umlLifeline;perimeter=lifelinePerimeter;whiteSpace=wrap;html=1;container=1;dropTarget=0;collapsible=0;recursiveResize=0;outlineConnect=0;portConstraint=eastwest;newEdgeStyle={&quot;curved&quot;:0,&quot;rounded&quot;:0};fontSize=14;fontStyle=1" vertex="1" parent="1">
          <mxGeometry x="-50" y="-42" width="100" height="1720" as="geometry" />
        </mxCell>
        <mxCell id="e9kwcE6qGJaGFsyXPlPn-23" value="" style="html=1;points=[[0,0,0,0,5],[0,1,0,0,-5],[1,0,0,0,5],[1,1,0,0,-5]];perimeter=orthogonalPerimeter;outlineConnect=0;targetShapes=umlLifeline;portConstraint=eastwest;newEdgeStyle={&quot;curved&quot;:0,&quot;rounded&quot;:0};strokeColor=#000000;fillColor=#dae8fc;" vertex="1" parent="e9kwcE6qGJaGFsyXPlPn-22">
          <mxGeometry x="45" y="162" width="10" height="78" as="geometry" />
        </mxCell>
        <mxCell id="e9kwcE6qGJaGFsyXPlPn-27" value="getSupervisedPositions()" style="text;html=1;align=center;verticalAlign=middle;resizable=0;points=[];autosize=1;strokeColor=none;fillColor=none;fontSize=13;fontStyle=2" vertex="1" parent="1">
          <mxGeometry x="-185" y="120" width="170" height="30" as="geometry" />
        </mxCell>
        <mxCell id="e9kwcE6qGJaGFsyXPlPn-28" value="" style="endArrow=classic;html=1;rounded=0;" edge="1" parent="1" source="e9kwcE6qGJaGFsyXPlPn-17" target="e9kwcE6qGJaGFsyXPlPn-23">
          <mxGeometry width="50" height="50" relative="1" as="geometry">
            <mxPoint x="-270" y="240" as="sourcePoint" />
            <mxPoint x="-220" y="190" as="targetPoint" />
            <Array as="points">
              <mxPoint x="-110" y="150" />
            </Array>
          </mxGeometry>
        </mxCell>
        <mxCell id="e9kwcE6qGJaGFsyXPlPn-29" value="ViewSupervisedTraineeship" style="shape=umlLifeline;perimeter=lifelinePerimeter;whiteSpace=wrap;html=1;container=1;dropTarget=0;collapsible=0;recursiveResize=0;outlineConnect=0;portConstraint=eastwest;newEdgeStyle={&quot;curved&quot;:0,&quot;rounded&quot;:0};fontSize=14;fontStyle=1" vertex="1" parent="1">
          <mxGeometry x="80" y="-40" width="210" height="2040" as="geometry" />
        </mxCell>
        <mxCell id="e9kwcE6qGJaGFsyXPlPn-30" value="" style="html=1;points=[[0,0,0,0,5],[0,1,0,0,-5],[1,0,0,0,5],[1,1,0,0,-5]];perimeter=orthogonalPerimeter;outlineConnect=0;targetShapes=umlLifeline;portConstraint=eastwest;newEdgeStyle={&quot;curved&quot;:0,&quot;rounded&quot;:0};strokeColor=#000000;fillColor=#dae8fc;" vertex="1" parent="e9kwcE6qGJaGFsyXPlPn-29">
          <mxGeometry x="100" y="250" width="10" height="190" as="geometry" />
        </mxCell>
        <mxCell id="e9kwcE6qGJaGFsyXPlPn-140" value="" style="html=1;points=[[0,0,0,0,5],[0,1,0,0,-5],[1,0,0,0,5],[1,1,0,0,-5]];perimeter=orthogonalPerimeter;outlineConnect=0;targetShapes=umlLifeline;portConstraint=eastwest;newEdgeStyle={&quot;curved&quot;:0,&quot;rounded&quot;:0};strokeColor=#000000;fillColor=#dae8fc;" vertex="1" parent="e9kwcE6qGJaGFsyXPlPn-29">
          <mxGeometry x="100" y="1800" width="10" height="90" as="geometry" />
        </mxCell>
        <mxCell id="e9kwcE6qGJaGFsyXPlPn-32" value="return supervisedPositions" style="html=1;verticalAlign=bottom;endArrow=open;dashed=1;endSize=8;curved=0;rounded=0;fontSize=13;fontStyle=2" edge="1" parent="1">
          <mxGeometry x="-0.0026" relative="1" as="geometry">
            <mxPoint x="-7.32" y="180" as="sourcePoint" />
            <mxPoint x="-192.68956521739148" y="180" as="targetPoint" />
            <mxPoint as="offset" />
          </mxGeometry>
        </mxCell>
        <mxCell id="e9kwcE6qGJaGFsyXPlPn-33" value="return supervisedPositions" style="html=1;verticalAlign=bottom;endArrow=open;dashed=1;endSize=8;curved=0;rounded=0;fontSize=13;fontStyle=2" edge="1" parent="1">
          <mxGeometry x="-0.0026" relative="1" as="geometry">
            <mxPoint x="-190" y="210" as="sourcePoint" />
            <mxPoint x="-435.3695652173915" y="210" as="targetPoint" />
            <mxPoint as="offset" />
          </mxGeometry>
        </mxCell>
        <mxCell id="e9kwcE6qGJaGFsyXPlPn-34" value="" style="endArrow=classic;html=1;rounded=0;" edge="1" parent="1">
          <mxGeometry width="50" height="50" relative="1" as="geometry">
            <mxPoint x="-435" y="260" as="sourcePoint" />
            <mxPoint x="180" y="260" as="targetPoint" />
          </mxGeometry>
        </mxCell>
        <mxCell id="e9kwcE6qGJaGFsyXPlPn-35" value="&quot;call&quot;" style="text;html=1;align=center;verticalAlign=middle;resizable=0;points=[];autosize=1;strokeColor=none;fillColor=none;fontSize=13;fontStyle=2" vertex="1" parent="1">
          <mxGeometry x="-400" y="230" width="50" height="30" as="geometry" />
        </mxCell>
        <mxCell id="e9kwcE6qGJaGFsyXPlPn-36" value="alt" style="shape=umlFrame;whiteSpace=wrap;html=1;pointerEvents=0;" vertex="1" parent="1">
          <mxGeometry x="-970" y="280" width="2600" height="890" as="geometry" />
        </mxCell>
        <mxCell id="e9kwcE6qGJaGFsyXPlPn-37" value="Evaluate Student" style="text;html=1;align=center;verticalAlign=middle;resizable=0;points=[];autosize=1;strokeColor=#666666;fillColor=#f5f5f5;fontSize=14;fontStyle=2;fontColor=#333333;" vertex="1" parent="1">
          <mxGeometry x="-370" y="290" width="130" height="30" as="geometry" />
        </mxCell>
        <mxCell id="e9kwcE6qGJaGFsyXPlPn-38" value="" style="endArrow=classic;html=1;rounded=0;" edge="1" parent="1">
          <mxGeometry width="50" height="50" relative="1" as="geometry">
            <mxPoint x="-835" y="330" as="sourcePoint" />
            <mxPoint x="180" y="330" as="targetPoint" />
          </mxGeometry>
        </mxCell>
        <mxCell id="e9kwcE6qGJaGFsyXPlPn-39" value="selects Student &amp;amp;&amp;nbsp;&lt;div&gt;click &quot;Evaluate&quot;&lt;/div&gt;" style="text;html=1;align=center;verticalAlign=middle;resizable=0;points=[];autosize=1;strokeColor=none;fillColor=none;" vertex="1" parent="1">
          <mxGeometry x="-805" y="290" width="120" height="40" as="geometry" />
        </mxCell>
        <mxCell id="e9kwcE6qGJaGFsyXPlPn-43" value="" style="endArrow=classic;html=1;rounded=0;" edge="1" parent="1">
          <mxGeometry width="50" height="50" relative="1" as="geometry">
            <mxPoint x="179.99999999999955" y="383" as="sourcePoint" />
            <mxPoint x="-435" y="383" as="targetPoint" />
          </mxGeometry>
        </mxCell>
        <mxCell id="e9kwcE6qGJaGFsyXPlPn-44" value="showEvaluationForm()" style="text;html=1;align=center;verticalAlign=middle;resizable=0;points=[];autosize=1;strokeColor=none;fillColor=none;fontSize=13;fontStyle=2" vertex="1" parent="1">
          <mxGeometry x="15" y="348" width="150" height="30" as="geometry" />
        </mxCell>
        <mxCell id="e9kwcE6qGJaGFsyXPlPn-45" value="TraineeshipPositionService" style="shape=umlLifeline;perimeter=lifelinePerimeter;whiteSpace=wrap;html=1;container=1;dropTarget=0;collapsible=0;recursiveResize=0;outlineConnect=0;portConstraint=eastwest;newEdgeStyle={&quot;curved&quot;:0,&quot;rounded&quot;:0};fontSize=14;fontStyle=1" vertex="1" parent="1">
          <mxGeometry x="320" y="-40" width="200" height="2030" as="geometry" />
        </mxCell>
        <mxCell id="e9kwcE6qGJaGFsyXPlPn-46" value="" style="html=1;points=[[0,0,0,0,5],[0,1,0,0,-5],[1,0,0,0,5],[1,1,0,0,-5]];perimeter=orthogonalPerimeter;outlineConnect=0;targetShapes=umlLifeline;portConstraint=eastwest;newEdgeStyle={&quot;curved&quot;:0,&quot;rounded&quot;:0};strokeColor=#000000;fillColor=#dae8fc;" vertex="1" parent="e9kwcE6qGJaGFsyXPlPn-45">
          <mxGeometry x="95" y="430" width="10" height="70" as="geometry" />
        </mxCell>
        <mxCell id="e9kwcE6qGJaGFsyXPlPn-59" value="" style="html=1;points=[[0,0,0,0,5],[0,1,0,0,-5],[1,0,0,0,5],[1,1,0,0,-5]];perimeter=orthogonalPerimeter;outlineConnect=0;targetShapes=umlLifeline;portConstraint=eastwest;newEdgeStyle={&quot;curved&quot;:0,&quot;rounded&quot;:0};strokeColor=#000000;fillColor=#dae8fc;" vertex="1" parent="e9kwcE6qGJaGFsyXPlPn-45">
          <mxGeometry x="95" y="566" width="10" height="74" as="geometry" />
        </mxCell>
        <mxCell id="e9kwcE6qGJaGFsyXPlPn-47" value="" style="endArrow=classic;html=1;rounded=0;" edge="1" parent="1">
          <mxGeometry width="50" height="50" relative="1" as="geometry">
            <mxPoint x="-435" y="419" as="sourcePoint" />
            <mxPoint x="415" y="419" as="targetPoint" />
          </mxGeometry>
        </mxCell>
        <mxCell id="e9kwcE6qGJaGFsyXPlPn-48" value="getPositionByID()" style="text;html=1;align=center;verticalAlign=middle;resizable=0;points=[];autosize=1;strokeColor=none;fillColor=none;fontStyle=2;fontSize=13;" vertex="1" parent="1">
          <mxGeometry x="-410" y="390" width="120" height="30" as="geometry" />
        </mxCell>
        <mxCell id="e9kwcE6qGJaGFsyXPlPn-49" value="TraineeshipDAORerository" style="shape=umlLifeline;perimeter=lifelinePerimeter;whiteSpace=wrap;html=1;container=1;dropTarget=0;collapsible=0;recursiveResize=0;outlineConnect=0;portConstraint=eastwest;newEdgeStyle={&quot;curved&quot;:0,&quot;rounded&quot;:0};fontSize=14;fontStyle=1" vertex="1" parent="1">
          <mxGeometry x="560" y="-42" width="200" height="2032" as="geometry" />
        </mxCell>
        <mxCell id="e9kwcE6qGJaGFsyXPlPn-50" value="" style="html=1;points=[[0,0,0,0,5],[0,1,0,0,-5],[1,0,0,0,5],[1,1,0,0,-5]];perimeter=orthogonalPerimeter;outlineConnect=0;targetShapes=umlLifeline;portConstraint=eastwest;newEdgeStyle={&quot;curved&quot;:0,&quot;rounded&quot;:0};strokeColor=#000000;fillColor=#dae8fc;" vertex="1" parent="e9kwcE6qGJaGFsyXPlPn-49">
          <mxGeometry x="95" y="462" width="10" height="138" as="geometry" />
        </mxCell>
        <mxCell id="e9kwcE6qGJaGFsyXPlPn-51" value="" style="endArrow=classic;html=1;rounded=0;" edge="1" parent="1">
          <mxGeometry width="50" height="50" relative="1" as="geometry">
            <mxPoint x="425" y="442" as="sourcePoint" />
            <mxPoint x="659.5" y="442" as="targetPoint" />
          </mxGeometry>
        </mxCell>
        <mxCell id="e9kwcE6qGJaGFsyXPlPn-52" value="findByID()" style="text;html=1;align=center;verticalAlign=middle;resizable=0;points=[];autosize=1;strokeColor=none;fillColor=none;fontSize=13;fontStyle=2" vertex="1" parent="1">
          <mxGeometry x="500" y="410" width="80" height="30" as="geometry" />
        </mxCell>
        <mxCell id="e9kwcE6qGJaGFsyXPlPn-53" value="Database (MySQL)" style="shape=umlLifeline;perimeter=lifelinePerimeter;whiteSpace=wrap;html=1;container=1;dropTarget=0;collapsible=0;recursiveResize=0;outlineConnect=0;portConstraint=eastwest;newEdgeStyle={&quot;curved&quot;:0,&quot;rounded&quot;:0};fontSize=14;fontStyle=1" vertex="1" parent="1">
          <mxGeometry x="800" y="-42" width="100" height="2032" as="geometry" />
        </mxCell>
        <mxCell id="e9kwcE6qGJaGFsyXPlPn-54" value="" style="html=1;points=[[0,0,0,0,5],[0,1,0,0,-5],[1,0,0,0,5],[1,1,0,0,-5]];perimeter=orthogonalPerimeter;outlineConnect=0;targetShapes=umlLifeline;portConstraint=eastwest;newEdgeStyle={&quot;curved&quot;:0,&quot;rounded&quot;:0};strokeColor=#000000;fillColor=#dae8fc;" vertex="1" parent="e9kwcE6qGJaGFsyXPlPn-53">
          <mxGeometry x="45" y="482" width="10" height="78" as="geometry" />
        </mxCell>
        <mxCell id="e9kwcE6qGJaGFsyXPlPn-127" value="" style="html=1;points=[[0,0,0,0,5],[0,1,0,0,-5],[1,0,0,0,5],[1,1,0,0,-5]];perimeter=orthogonalPerimeter;outlineConnect=0;targetShapes=umlLifeline;portConstraint=eastwest;newEdgeStyle={&quot;curved&quot;:0,&quot;rounded&quot;:0};strokeColor=#000000;fillColor=#dae8fc;" vertex="1" parent="e9kwcE6qGJaGFsyXPlPn-53">
          <mxGeometry x="45" y="1532" width="10" height="48" as="geometry" />
        </mxCell>
        <mxCell id="e9kwcE6qGJaGFsyXPlPn-55" value="return Position" style="html=1;verticalAlign=bottom;endArrow=open;dashed=1;endSize=8;curved=0;rounded=0;fontSize=13;fontStyle=2;exitX=0;exitY=1;exitDx=0;exitDy=-5;exitPerimeter=0;" edge="1" parent="1" source="e9kwcE6qGJaGFsyXPlPn-54" target="e9kwcE6qGJaGFsyXPlPn-49">
          <mxGeometry x="-0.0026" relative="1" as="geometry">
            <mxPoint x="829.5" y="510" as="sourcePoint" />
            <mxPoint x="690" y="510" as="targetPoint" />
            <mxPoint as="offset" />
          </mxGeometry>
        </mxCell>
        <mxCell id="e9kwcE6qGJaGFsyXPlPn-56" value="" style="endArrow=classic;html=1;rounded=0;" edge="1" parent="1">
          <mxGeometry width="50" height="50" relative="1" as="geometry">
            <mxPoint x="665" y="481" as="sourcePoint" />
            <mxPoint x="845" y="481" as="targetPoint" />
          </mxGeometry>
        </mxCell>
        <mxCell id="e9kwcE6qGJaGFsyXPlPn-57" value="find Position" style="text;html=1;align=center;verticalAlign=middle;resizable=0;points=[];autosize=1;strokeColor=none;fillColor=none;fontSize=13;fontStyle=2" vertex="1" parent="1">
          <mxGeometry x="710" y="450" width="90" height="30" as="geometry" />
        </mxCell>
        <mxCell id="e9kwcE6qGJaGFsyXPlPn-58" value="return Position" style="html=1;verticalAlign=bottom;endArrow=open;dashed=1;endSize=8;curved=0;rounded=0;fontSize=13;fontStyle=2;exitX=0;exitY=1;exitDx=0;exitDy=-5;exitPerimeter=0;" edge="1" parent="1" source="e9kwcE6qGJaGFsyXPlPn-50" target="e9kwcE6qGJaGFsyXPlPn-45">
          <mxGeometry x="-0.0026" relative="1" as="geometry">
            <mxPoint x="646" y="550" as="sourcePoint" />
            <mxPoint x="460" y="550" as="targetPoint" />
            <mxPoint as="offset" />
          </mxGeometry>
        </mxCell>
        <mxCell id="e9kwcE6qGJaGFsyXPlPn-60" value="return Position" style="html=1;verticalAlign=bottom;endArrow=open;dashed=1;endSize=8;curved=0;rounded=0;fontSize=13;fontStyle=2;" edge="1" parent="1">
          <mxGeometry x="-0.0026" relative="1" as="geometry">
            <mxPoint x="415" y="579" as="sourcePoint" />
            <mxPoint x="-435" y="579" as="targetPoint" />
            <mxPoint as="offset" />
          </mxGeometry>
        </mxCell>
        <mxCell id="e9kwcE6qGJaGFsyXPlPn-61" value="" style="html=1;points=[[0,0,0,0,5],[0,1,0,0,-5],[1,0,0,0,5],[1,1,0,0,-5]];perimeter=orthogonalPerimeter;outlineConnect=0;targetShapes=umlLifeline;portConstraint=eastwest;newEdgeStyle={&quot;curved&quot;:0,&quot;rounded&quot;:0};strokeColor=#000000;fillColor=#dae8fc;" vertex="1" parent="1">
          <mxGeometry x="-445" y="560" width="10" height="48" as="geometry" />
        </mxCell>
        <mxCell id="e9kwcE6qGJaGFsyXPlPn-62" value="View Company Details" style="text;html=1;align=center;verticalAlign=middle;resizable=0;points=[];autosize=1;strokeColor=#666666;fillColor=#f5f5f5;fontSize=14;fontStyle=2;fontColor=#333333;" vertex="1" parent="1">
          <mxGeometry x="-400" y="620" width="160" height="30" as="geometry" />
        </mxCell>
        <mxCell id="e9kwcE6qGJaGFsyXPlPn-63" value="" style="html=1;points=[[0,0,0,0,5],[0,1,0,0,-5],[1,0,0,0,5],[1,1,0,0,-5]];perimeter=orthogonalPerimeter;outlineConnect=0;targetShapes=umlLifeline;portConstraint=eastwest;newEdgeStyle={&quot;curved&quot;:0,&quot;rounded&quot;:0};strokeColor=#000000;fillColor=#dae8fc;" vertex="1" parent="1">
          <mxGeometry x="180" y="660" width="10" height="48" as="geometry" />
        </mxCell>
        <mxCell id="e9kwcE6qGJaGFsyXPlPn-64" value="" style="endArrow=classic;html=1;rounded=0;" edge="1" parent="1">
          <mxGeometry width="50" height="50" relative="1" as="geometry">
            <mxPoint x="-835" y="670" as="sourcePoint" />
            <mxPoint x="180" y="670" as="targetPoint" />
          </mxGeometry>
        </mxCell>
        <mxCell id="e9kwcE6qGJaGFsyXPlPn-65" value="&lt;div&gt;Click &quot;Company Name&quot;&amp;nbsp;&lt;/div&gt;&lt;div&gt;to view details&lt;/div&gt;" style="text;html=1;align=center;verticalAlign=middle;resizable=0;points=[];autosize=1;strokeColor=none;fillColor=none;fontSize=13;fontStyle=2" vertex="1" parent="1">
          <mxGeometry x="-830" y="630" width="160" height="40" as="geometry" />
        </mxCell>
        <mxCell id="e9kwcE6qGJaGFsyXPlPn-67" value="showCompanyDetails()" style="text;html=1;align=center;verticalAlign=middle;resizable=0;points=[];autosize=1;strokeColor=none;fillColor=none;fontSize=13;fontStyle=2" vertex="1" parent="1">
          <mxGeometry x="210" y="660" width="160" height="30" as="geometry" />
        </mxCell>
        <mxCell id="e9kwcE6qGJaGFsyXPlPn-68" value="InformationsController" style="shape=umlLifeline;perimeter=lifelinePerimeter;whiteSpace=wrap;html=1;container=1;dropTarget=0;collapsible=0;recursiveResize=0;outlineConnect=0;portConstraint=eastwest;newEdgeStyle={&quot;curved&quot;:0,&quot;rounded&quot;:0};fontSize=14;fontStyle=1" vertex="1" parent="1">
          <mxGeometry x="930" y="-42" width="190" height="2052" as="geometry" />
        </mxCell>
        <mxCell id="e9kwcE6qGJaGFsyXPlPn-69" value="" style="html=1;points=[[0,0,0,0,5],[0,1,0,0,-5],[1,0,0,0,5],[1,1,0,0,-5]];perimeter=orthogonalPerimeter;outlineConnect=0;targetShapes=umlLifeline;portConstraint=eastwest;newEdgeStyle={&quot;curved&quot;:0,&quot;rounded&quot;:0};strokeColor=#000000;fillColor=#dae8fc;" vertex="1" parent="e9kwcE6qGJaGFsyXPlPn-68">
          <mxGeometry x="90" y="722" width="10" height="68" as="geometry" />
        </mxCell>
        <mxCell id="e9kwcE6qGJaGFsyXPlPn-70" value="" style="html=1;points=[[0,0,0,0,5],[0,1,0,0,-5],[1,0,0,0,5],[1,1,0,0,-5]];perimeter=orthogonalPerimeter;outlineConnect=0;targetShapes=umlLifeline;portConstraint=eastwest;newEdgeStyle={&quot;curved&quot;:0,&quot;rounded&quot;:0};strokeColor=#000000;fillColor=#dae8fc;" vertex="1" parent="e9kwcE6qGJaGFsyXPlPn-68">
          <mxGeometry x="90" y="912" width="10" height="70" as="geometry" />
        </mxCell>
        <mxCell id="e9kwcE6qGJaGFsyXPlPn-100" value="" style="html=1;points=[[0,0,0,0,5],[0,1,0,0,-5],[1,0,0,0,5],[1,1,0,0,-5]];perimeter=orthogonalPerimeter;outlineConnect=0;targetShapes=umlLifeline;portConstraint=eastwest;newEdgeStyle={&quot;curved&quot;:0,&quot;rounded&quot;:0};strokeColor=#000000;fillColor=#dae8fc;" vertex="1" parent="e9kwcE6qGJaGFsyXPlPn-68">
          <mxGeometry x="90" y="1100" width="10" height="60" as="geometry" />
        </mxCell>
        <mxCell id="e9kwcE6qGJaGFsyXPlPn-71" value="company-details" style="shape=umlLifeline;perimeter=lifelinePerimeter;whiteSpace=wrap;html=1;container=1;dropTarget=0;collapsible=0;recursiveResize=0;outlineConnect=0;portConstraint=eastwest;newEdgeStyle={&quot;curved&quot;:0,&quot;rounded&quot;:0};fontSize=14;fontStyle=1" vertex="1" parent="1">
          <mxGeometry x="1160" y="-40" width="130" height="2040" as="geometry" />
        </mxCell>
        <mxCell id="e9kwcE6qGJaGFsyXPlPn-72" value="" style="html=1;points=[[0,0,0,0,5],[0,1,0,0,-5],[1,0,0,0,5],[1,1,0,0,-5]];perimeter=orthogonalPerimeter;outlineConnect=0;targetShapes=umlLifeline;portConstraint=eastwest;newEdgeStyle={&quot;curved&quot;:0,&quot;rounded&quot;:0};strokeColor=#000000;fillColor=#dae8fc;" vertex="1" parent="e9kwcE6qGJaGFsyXPlPn-71">
          <mxGeometry x="60" y="730" width="10" height="110" as="geometry" />
        </mxCell>
        <mxCell id="e9kwcE6qGJaGFsyXPlPn-73" value="" style="endArrow=classic;html=1;rounded=0;entryX=0.477;entryY=0.459;entryDx=0;entryDy=0;entryPerimeter=0;" edge="1" parent="1">
          <mxGeometry width="50" height="50" relative="1" as="geometry">
            <mxPoint x="190" y="693.9499999999998" as="sourcePoint" />
            <mxPoint x="1024.7700000000004" y="693.9499999999998" as="targetPoint" />
          </mxGeometry>
        </mxCell>
        <mxCell id="e9kwcE6qGJaGFsyXPlPn-74" value="" style="endArrow=classic;html=1;rounded=0;" edge="1" parent="1">
          <mxGeometry width="50" height="50" relative="1" as="geometry">
            <mxPoint x="1023.9615384615381" y="723" as="sourcePoint" />
            <mxPoint x="1220" y="723" as="targetPoint" />
          </mxGeometry>
        </mxCell>
        <mxCell id="e9kwcE6qGJaGFsyXPlPn-75" value="&quot;call&quot;" style="text;html=1;align=center;verticalAlign=middle;resizable=0;points=[];autosize=1;strokeColor=none;fillColor=none;fontSize=13;fontStyle=2" vertex="1" parent="1">
          <mxGeometry x="1090" y="690" width="50" height="30" as="geometry" />
        </mxCell>
        <mxCell id="e9kwcE6qGJaGFsyXPlPn-76" value="" style="endArrow=classic;html=1;rounded=0;" edge="1" parent="1">
          <mxGeometry width="50" height="50" relative="1" as="geometry">
            <mxPoint x="-835" y="780" as="sourcePoint" />
            <mxPoint x="1220" y="780" as="targetPoint" />
          </mxGeometry>
        </mxCell>
        <mxCell id="e9kwcE6qGJaGFsyXPlPn-77" value="Read the company details &amp;amp;&lt;div&gt;click &quot;Back&quot;&amp;nbsp;&lt;/div&gt;" style="text;html=1;align=center;verticalAlign=middle;resizable=0;points=[];autosize=1;strokeColor=none;fillColor=none;fontSize=13;fontStyle=2" vertex="1" parent="1">
          <mxGeometry x="-835" y="740" width="190" height="40" as="geometry" />
        </mxCell>
        <mxCell id="e9kwcE6qGJaGFsyXPlPn-78" value="View Professor Details" style="text;html=1;align=center;verticalAlign=middle;resizable=0;points=[];autosize=1;strokeColor=#666666;fillColor=#f5f5f5;fontSize=14;fontStyle=2;fontColor=#333333;" vertex="1" parent="1">
          <mxGeometry x="-385" y="800" width="160" height="30" as="geometry" />
        </mxCell>
        <mxCell id="e9kwcE6qGJaGFsyXPlPn-79" value="" style="html=1;points=[[0,0,0,0,5],[0,1,0,0,-5],[1,0,0,0,5],[1,1,0,0,-5]];perimeter=orthogonalPerimeter;outlineConnect=0;targetShapes=umlLifeline;portConstraint=eastwest;newEdgeStyle={&quot;curved&quot;:0,&quot;rounded&quot;:0};strokeColor=#000000;fillColor=#dae8fc;" vertex="1" parent="1">
          <mxGeometry x="180" y="840" width="10" height="80" as="geometry" />
        </mxCell>
        <mxCell id="e9kwcE6qGJaGFsyXPlPn-80" value="" style="endArrow=classic;html=1;rounded=0;" edge="1" parent="1">
          <mxGeometry width="50" height="50" relative="1" as="geometry">
            <mxPoint x="-835" y="863.09" as="sourcePoint" />
            <mxPoint x="180" y="863.09" as="targetPoint" />
          </mxGeometry>
        </mxCell>
        <mxCell id="e9kwcE6qGJaGFsyXPlPn-84" value="&lt;div style=&quot;font-size: 13px; font-style: italic;&quot;&gt;Click &quot;Student Name&quot;&amp;nbsp;&lt;/div&gt;&lt;div style=&quot;font-size: 13px; font-style: italic;&quot;&gt;to view details&lt;/div&gt;" style="text;html=1;align=center;verticalAlign=middle;resizable=0;points=[];autosize=1;strokeColor=none;fillColor=none;" vertex="1" parent="1">
          <mxGeometry x="-810" y="820" width="150" height="40" as="geometry" />
        </mxCell>
        <mxCell id="e9kwcE6qGJaGFsyXPlPn-85" value="" style="endArrow=classic;html=1;rounded=0;" edge="1" parent="1">
          <mxGeometry width="50" height="50" relative="1" as="geometry">
            <mxPoint x="190" y="901" as="sourcePoint" />
            <mxPoint x="1020" y="901" as="targetPoint" />
          </mxGeometry>
        </mxCell>
        <mxCell id="e9kwcE6qGJaGFsyXPlPn-86" value="showStudentDetails()" style="text;html=1;align=center;verticalAlign=middle;resizable=0;points=[];autosize=1;strokeColor=none;fillColor=none;fontSize=13;fontStyle=2" vertex="1" parent="1">
          <mxGeometry x="225" y="865" width="150" height="30" as="geometry" />
        </mxCell>
        <mxCell id="e9kwcE6qGJaGFsyXPlPn-88" value="" style="endArrow=classic;html=1;rounded=0;" edge="1" parent="1" target="e9kwcE6qGJaGFsyXPlPn-92">
          <mxGeometry width="50" height="50" relative="1" as="geometry">
            <mxPoint x="1020.0015384615381" y="920" as="sourcePoint" />
            <mxPoint x="1250.54" y="920" as="targetPoint" />
          </mxGeometry>
        </mxCell>
        <mxCell id="e9kwcE6qGJaGFsyXPlPn-89" value="&quot;call&quot;" style="text;html=1;align=center;verticalAlign=middle;resizable=0;points=[];autosize=1;strokeColor=none;fillColor=none;fontSize=13;fontStyle=2" vertex="1" parent="1">
          <mxGeometry x="1070" y="890" width="50" height="30" as="geometry" />
        </mxCell>
        <mxCell id="e9kwcE6qGJaGFsyXPlPn-90" value="" style="endArrow=classic;html=1;rounded=0;" edge="1" parent="1" target="e9kwcE6qGJaGFsyXPlPn-92">
          <mxGeometry width="50" height="50" relative="1" as="geometry">
            <mxPoint x="-830" y="970" as="sourcePoint" />
            <mxPoint x="1259" y="970" as="targetPoint" />
          </mxGeometry>
        </mxCell>
        <mxCell id="e9kwcE6qGJaGFsyXPlPn-91" value="Read the student details &amp;amp;&lt;div&gt;click &quot;Back&quot;&amp;nbsp;&lt;/div&gt;" style="text;html=1;align=center;verticalAlign=middle;resizable=0;points=[];autosize=1;strokeColor=none;fillColor=none;fontSize=13;fontStyle=2" vertex="1" parent="1">
          <mxGeometry x="-830" y="920" width="180" height="40" as="geometry" />
        </mxCell>
        <mxCell id="e9kwcE6qGJaGFsyXPlPn-92" value="student-details" style="shape=umlLifeline;perimeter=lifelinePerimeter;whiteSpace=wrap;html=1;container=1;dropTarget=0;collapsible=0;recursiveResize=0;outlineConnect=0;portConstraint=eastwest;newEdgeStyle={&quot;curved&quot;:0,&quot;rounded&quot;:0};fontSize=14;fontStyle=1" vertex="1" parent="1">
          <mxGeometry x="1320" y="-40" width="140" height="2050" as="geometry" />
        </mxCell>
        <mxCell id="e9kwcE6qGJaGFsyXPlPn-87" value="" style="html=1;points=[[0,0,0,0,5],[0,1,0,0,-5],[1,0,0,0,5],[1,1,0,0,-5]];perimeter=orthogonalPerimeter;outlineConnect=0;targetShapes=umlLifeline;portConstraint=eastwest;newEdgeStyle={&quot;curved&quot;:0,&quot;rounded&quot;:0};strokeColor=#000000;fillColor=#dae8fc;" vertex="1" parent="e9kwcE6qGJaGFsyXPlPn-92">
          <mxGeometry x="65" y="935" width="10" height="110" as="geometry" />
        </mxCell>
        <mxCell id="e9kwcE6qGJaGFsyXPlPn-95" value="position-details" style="shape=umlLifeline;perimeter=lifelinePerimeter;whiteSpace=wrap;html=1;container=1;dropTarget=0;collapsible=0;recursiveResize=0;outlineConnect=0;portConstraint=eastwest;newEdgeStyle={&quot;curved&quot;:0,&quot;rounded&quot;:0};fontSize=14;fontStyle=1" vertex="1" parent="1">
          <mxGeometry x="1500" y="-40" width="140" height="2030" as="geometry" />
        </mxCell>
        <mxCell id="e9kwcE6qGJaGFsyXPlPn-96" value="" style="html=1;points=[[0,0,0,0,5],[0,1,0,0,-5],[1,0,0,0,5],[1,1,0,0,-5]];perimeter=orthogonalPerimeter;outlineConnect=0;targetShapes=umlLifeline;portConstraint=eastwest;newEdgeStyle={&quot;curved&quot;:0,&quot;rounded&quot;:0};strokeColor=#000000;fillColor=#dae8fc;" vertex="1" parent="e9kwcE6qGJaGFsyXPlPn-95">
          <mxGeometry x="65" y="1115" width="10" height="85" as="geometry" />
        </mxCell>
        <mxCell id="e9kwcE6qGJaGFsyXPlPn-97" value="View Traineeship Position Details" style="text;html=1;align=center;verticalAlign=middle;resizable=0;points=[];autosize=1;strokeColor=#666666;fillColor=#f5f5f5;fontSize=14;fontStyle=2;fontColor=#333333;" vertex="1" parent="1">
          <mxGeometry x="-425" y="1000" width="230" height="30" as="geometry" />
        </mxCell>
        <mxCell id="e9kwcE6qGJaGFsyXPlPn-18" value="" style="html=1;points=[[0,0,0,0,5],[0,1,0,0,-5],[1,0,0,0,5],[1,1,0,0,-5]];perimeter=orthogonalPerimeter;outlineConnect=0;targetShapes=umlLifeline;portConstraint=eastwest;newEdgeStyle={&quot;curved&quot;:0,&quot;rounded&quot;:0};strokeColor=#000000;fillColor=#dae8fc;" vertex="1" parent="1">
          <mxGeometry x="180" y="1030" width="10" height="60" as="geometry" />
        </mxCell>
        <mxCell id="e9kwcE6qGJaGFsyXPlPn-98" value="" style="endArrow=classic;html=1;rounded=0;" edge="1" parent="1">
          <mxGeometry width="50" height="50" relative="1" as="geometry">
            <mxPoint x="-835" y="1059.23" as="sourcePoint" />
            <mxPoint x="180" y="1059.23" as="targetPoint" />
          </mxGeometry>
        </mxCell>
        <mxCell id="e9kwcE6qGJaGFsyXPlPn-99" value="&lt;div&gt;Click &quot;Traineeship Position&amp;nbsp; Name&quot;&amp;nbsp;&lt;/div&gt;&lt;div&gt;to view details&lt;/div&gt;" style="text;html=1;align=center;verticalAlign=middle;resizable=0;points=[];autosize=1;strokeColor=none;fillColor=none;fontSize=13;fontStyle=2" vertex="1" parent="1">
          <mxGeometry x="-850" y="1010" width="230" height="40" as="geometry" />
        </mxCell>
        <mxCell id="e9kwcE6qGJaGFsyXPlPn-101" value="" style="endArrow=classic;html=1;rounded=0;" edge="1" parent="1">
          <mxGeometry width="50" height="50" relative="1" as="geometry">
            <mxPoint x="190" y="1080" as="sourcePoint" />
            <mxPoint x="1020" y="1080" as="targetPoint" />
          </mxGeometry>
        </mxCell>
        <mxCell id="e9kwcE6qGJaGFsyXPlPn-102" value="" style="endArrow=classic;html=1;rounded=0;" edge="1" parent="1">
          <mxGeometry width="50" height="50" relative="1" as="geometry">
            <mxPoint x="1030" y="1110" as="sourcePoint" />
            <mxPoint x="1570" y="1110" as="targetPoint" />
          </mxGeometry>
        </mxCell>
        <mxCell id="e9kwcE6qGJaGFsyXPlPn-103" value="showPositionDetails()" style="text;html=1;align=center;verticalAlign=middle;resizable=0;points=[];autosize=1;strokeColor=none;fillColor=none;fontSize=13;fontStyle=2" vertex="1" parent="1">
          <mxGeometry x="225" y="1045" width="150" height="30" as="geometry" />
        </mxCell>
        <mxCell id="e9kwcE6qGJaGFsyXPlPn-104" value="&quot;call&quot;" style="text;html=1;align=center;verticalAlign=middle;resizable=0;points=[];autosize=1;strokeColor=none;fillColor=none;fontSize=13;fontStyle=2" vertex="1" parent="1">
          <mxGeometry x="1065" y="1078" width="50" height="30" as="geometry" />
        </mxCell>
        <mxCell id="e9kwcE6qGJaGFsyXPlPn-105" value="" style="endArrow=classic;html=1;rounded=0;" edge="1" parent="1" target="e9kwcE6qGJaGFsyXPlPn-96">
          <mxGeometry width="50" height="50" relative="1" as="geometry">
            <mxPoint x="-835" y="1130" as="sourcePoint" />
            <mxPoint x="1385" y="1130" as="targetPoint" />
          </mxGeometry>
        </mxCell>
        <mxCell id="e9kwcE6qGJaGFsyXPlPn-106" value="Read the position details &amp;amp;&lt;div&gt;click &quot;Back&quot;&amp;nbsp;&lt;/div&gt;" style="text;html=1;align=center;verticalAlign=middle;resizable=0;points=[];autosize=1;strokeColor=none;fillColor=none;fontSize=13;fontStyle=2" vertex="1" parent="1">
          <mxGeometry x="-830" y="1090" width="180" height="40" as="geometry" />
        </mxCell>
        <mxCell id="e9kwcE6qGJaGFsyXPlPn-108" value="Evaluate" style="shape=umlLifeline;perimeter=lifelinePerimeter;whiteSpace=wrap;html=1;container=1;dropTarget=0;collapsible=0;recursiveResize=0;outlineConnect=0;portConstraint=eastwest;newEdgeStyle={&quot;curved&quot;:0,&quot;rounded&quot;:0};fontSize=14;fontStyle=1" vertex="1" parent="1">
          <mxGeometry x="1700" y="-42" width="90" height="2052" as="geometry" />
        </mxCell>
        <mxCell id="e9kwcE6qGJaGFsyXPlPn-109" value="" style="html=1;points=[[0,0,0,0,5],[0,1,0,0,-5],[1,0,0,0,5],[1,1,0,0,-5]];perimeter=orthogonalPerimeter;outlineConnect=0;targetShapes=umlLifeline;portConstraint=eastwest;newEdgeStyle={&quot;curved&quot;:0,&quot;rounded&quot;:0};strokeColor=#000000;fillColor=#dae8fc;" vertex="1" parent="e9kwcE6qGJaGFsyXPlPn-108">
          <mxGeometry x="40" y="1240" width="10" height="50" as="geometry" />
        </mxCell>
        <mxCell id="e9kwcE6qGJaGFsyXPlPn-110" value="" style="endArrow=classic;html=1;rounded=0;" edge="1" parent="1">
          <mxGeometry width="50" height="50" relative="1" as="geometry">
            <mxPoint x="-440" y="1225" as="sourcePoint" />
            <mxPoint x="1740" y="1220" as="targetPoint" />
          </mxGeometry>
        </mxCell>
        <mxCell id="e9kwcE6qGJaGFsyXPlPn-111" value="" style="endArrow=classic;html=1;rounded=0;" edge="1" parent="1" target="e9kwcE6qGJaGFsyXPlPn-114">
          <mxGeometry width="50" height="50" relative="1" as="geometry">
            <mxPoint x="-845" y="1332" as="sourcePoint" />
            <mxPoint x="1734.5" y="1332" as="targetPoint" />
          </mxGeometry>
        </mxCell>
        <mxCell id="e9kwcE6qGJaGFsyXPlPn-112" value="alt" style="shape=umlFrame;whiteSpace=wrap;html=1;pointerEvents=0;" vertex="1" parent="1">
          <mxGeometry x="-970" y="1260" width="2900" height="470" as="geometry" />
        </mxCell>
        <mxCell id="e9kwcE6qGJaGFsyXPlPn-113" value="Fill correct the Evaluation" style="text;html=1;align=center;verticalAlign=middle;resizable=0;points=[];autosize=1;strokeColor=#666666;fillColor=#f5f5f5;fontSize=14;fontStyle=2;fontColor=#333333;" vertex="1" parent="1">
          <mxGeometry x="85" y="1290" width="180" height="30" as="geometry" />
        </mxCell>
        <mxCell id="e9kwcE6qGJaGFsyXPlPn-114" value="" style="html=1;points=[[0,0,0,0,5],[0,1,0,0,-5],[1,0,0,0,5],[1,1,0,0,-5]];perimeter=orthogonalPerimeter;outlineConnect=0;targetShapes=umlLifeline;portConstraint=eastwest;newEdgeStyle={&quot;curved&quot;:0,&quot;rounded&quot;:0};strokeColor=#000000;fillColor=#dae8fc;" vertex="1" parent="1">
          <mxGeometry x="1740" y="1310" width="10" height="100" as="geometry" />
        </mxCell>
        <mxCell id="e9kwcE6qGJaGFsyXPlPn-115" value="fill correct the evaluation" style="text;html=1;align=center;verticalAlign=middle;resizable=0;points=[];autosize=1;strokeColor=none;fillColor=none;fontSize=13;fontStyle=2" vertex="1" parent="1">
          <mxGeometry x="-835" y="1300" width="160" height="30" as="geometry" />
        </mxCell>
        <mxCell id="e9kwcE6qGJaGFsyXPlPn-117" value="saveEvaluation()" style="text;html=1;align=center;verticalAlign=middle;resizable=0;points=[];autosize=1;strokeColor=none;fillColor=none;fontStyle=2;fontSize=13;" vertex="1" parent="1">
          <mxGeometry x="1585" y="1350" width="120" height="30" as="geometry" />
        </mxCell>
        <mxCell id="e9kwcE6qGJaGFsyXPlPn-118" value="" style="endArrow=classic;html=1;rounded=0;" edge="1" parent="1">
          <mxGeometry width="50" height="50" relative="1" as="geometry">
            <mxPoint x="1730" y="1380" as="sourcePoint" />
            <mxPoint x="-430" y="1380" as="targetPoint" />
          </mxGeometry>
        </mxCell>
        <mxCell id="e9kwcE6qGJaGFsyXPlPn-119" value="EvaluateionService" style="shape=umlLifeline;perimeter=lifelinePerimeter;whiteSpace=wrap;html=1;container=1;dropTarget=0;collapsible=0;recursiveResize=0;outlineConnect=0;portConstraint=eastwest;newEdgeStyle={&quot;curved&quot;:0,&quot;rounded&quot;:0};fontSize=14;fontStyle=1" vertex="1" parent="1">
          <mxGeometry x="1830" y="-40" width="130" height="2030" as="geometry" />
        </mxCell>
        <mxCell id="e9kwcE6qGJaGFsyXPlPn-120" value="" style="html=1;points=[[0,0,0,0,5],[0,1,0,0,-5],[1,0,0,0,5],[1,1,0,0,-5]];perimeter=orthogonalPerimeter;outlineConnect=0;targetShapes=umlLifeline;portConstraint=eastwest;newEdgeStyle={&quot;curved&quot;:0,&quot;rounded&quot;:0};strokeColor=#000000;fillColor=#dae8fc;" vertex="1" parent="e9kwcE6qGJaGFsyXPlPn-119">
          <mxGeometry x="60" y="1440" width="10" height="90" as="geometry" />
        </mxCell>
        <mxCell id="e9kwcE6qGJaGFsyXPlPn-121" value="" style="endArrow=classic;html=1;rounded=0;" edge="1" parent="1">
          <mxGeometry width="50" height="50" relative="1" as="geometry">
            <mxPoint x="-450.1060606060605" y="1427" as="sourcePoint" />
            <mxPoint x="1880" y="1427" as="targetPoint" />
          </mxGeometry>
        </mxCell>
        <mxCell id="e9kwcE6qGJaGFsyXPlPn-123" value="saveOrUpdateEvaluation()" style="text;html=1;align=center;verticalAlign=middle;resizable=0;points=[];autosize=1;strokeColor=none;fillColor=none;fontSize=13;fontStyle=2" vertex="1" parent="1">
          <mxGeometry x="-420" y="1390" width="180" height="30" as="geometry" />
        </mxCell>
        <mxCell id="e9kwcE6qGJaGFsyXPlPn-124" value="" style="endArrow=classic;html=1;rounded=0;" edge="1" parent="1" target="e9kwcE6qGJaGFsyXPlPn-125">
          <mxGeometry width="50" height="50" relative="1" as="geometry">
            <mxPoint x="1883.220000000001" y="1480" as="sourcePoint" />
            <mxPoint x="660" y="1480" as="targetPoint" />
          </mxGeometry>
        </mxCell>
        <mxCell id="e9kwcE6qGJaGFsyXPlPn-125" value="" style="html=1;points=[[0,0,0,0,5],[0,1,0,0,-5],[1,0,0,0,5],[1,1,0,0,-5]];perimeter=orthogonalPerimeter;outlineConnect=0;targetShapes=umlLifeline;portConstraint=eastwest;newEdgeStyle={&quot;curved&quot;:0,&quot;rounded&quot;:0};strokeColor=#000000;fillColor=#dae8fc;" vertex="1" parent="1">
          <mxGeometry x="655" y="1460" width="10" height="60" as="geometry" />
        </mxCell>
        <mxCell id="e9kwcE6qGJaGFsyXPlPn-126" value="save()" style="text;html=1;align=center;verticalAlign=middle;resizable=0;points=[];autosize=1;strokeColor=none;fillColor=none;fontSize=13;fontStyle=2" vertex="1" parent="1">
          <mxGeometry x="1780" y="1448" width="60" height="30" as="geometry" />
        </mxCell>
        <mxCell id="e9kwcE6qGJaGFsyXPlPn-128" value="" style="endArrow=classic;html=1;rounded=0;exitX=0;exitY=1;exitDx=0;exitDy=-5;exitPerimeter=0;" edge="1" parent="1" source="e9kwcE6qGJaGFsyXPlPn-125" target="e9kwcE6qGJaGFsyXPlPn-127">
          <mxGeometry width="50" height="50" relative="1" as="geometry">
            <mxPoint x="690" y="1480" as="sourcePoint" />
            <mxPoint x="740" y="1430" as="targetPoint" />
          </mxGeometry>
        </mxCell>
        <mxCell id="e9kwcE6qGJaGFsyXPlPn-129" value="save Evaluation" style="text;html=1;align=center;verticalAlign=middle;resizable=0;points=[];autosize=1;strokeColor=none;fillColor=none;fontSize=13;fontStyle=2" vertex="1" parent="1">
          <mxGeometry x="675" y="1490" width="120" height="30" as="geometry" />
        </mxCell>
        <mxCell id="e9kwcE6qGJaGFsyXPlPn-130" value="Fill correct the Evaluation" style="text;html=1;align=center;verticalAlign=middle;resizable=0;points=[];autosize=1;strokeColor=#666666;fillColor=#f5f5f5;fontSize=14;fontStyle=2;fontColor=#333333;" vertex="1" parent="1">
          <mxGeometry x="90" y="1565" width="180" height="30" as="geometry" />
        </mxCell>
        <mxCell id="e9kwcE6qGJaGFsyXPlPn-133" value="" style="endArrow=classic;html=1;rounded=0;" edge="1" parent="1" target="e9kwcE6qGJaGFsyXPlPn-134">
          <mxGeometry width="50" height="50" relative="1" as="geometry">
            <mxPoint x="-853" y="1640" as="sourcePoint" />
            <mxPoint x="1730" y="1640" as="targetPoint" />
          </mxGeometry>
        </mxCell>
        <mxCell id="e9kwcE6qGJaGFsyXPlPn-131" value="fill incorrect the evaluation" style="text;html=1;align=center;verticalAlign=middle;resizable=0;points=[];autosize=1;strokeColor=none;fillColor=none;fontSize=13;fontStyle=2" vertex="1" parent="1">
          <mxGeometry x="-830" y="1595" width="170" height="30" as="geometry" />
        </mxCell>
        <mxCell id="e9kwcE6qGJaGFsyXPlPn-134" value="" style="html=1;points=[[0,0,0,0,5],[0,1,0,0,-5],[1,0,0,0,5],[1,1,0,0,-5]];perimeter=orthogonalPerimeter;outlineConnect=0;targetShapes=umlLifeline;portConstraint=eastwest;newEdgeStyle={&quot;curved&quot;:0,&quot;rounded&quot;:0};strokeColor=#000000;fillColor=#dae8fc;" vertex="1" parent="1">
          <mxGeometry x="1740" y="1620" width="10" height="90" as="geometry" />
        </mxCell>
        <mxCell id="e9kwcE6qGJaGFsyXPlPn-135" value="show error&amp;nbsp;&lt;div&gt;message&lt;/div&gt;" style="html=1;align=left;spacingLeft=2;endArrow=block;rounded=0;edgeStyle=orthogonalEdgeStyle;curved=0;rounded=0;fontSize=13;fontStyle=2" edge="1" parent="1">
          <mxGeometry relative="1" as="geometry">
            <mxPoint x="1740" y="1660" as="sourcePoint" />
            <Array as="points">
              <mxPoint x="1770" y="1690" />
            </Array>
            <mxPoint x="1745" y="1690.0588235294122" as="targetPoint" />
          </mxGeometry>
        </mxCell>
        <mxCell id="e9kwcE6qGJaGFsyXPlPn-137" value="" style="endArrow=classic;html=1;rounded=0;" edge="1" parent="1" source="e9kwcE6qGJaGFsyXPlPn-136">
          <mxGeometry width="50" height="50" relative="1" as="geometry">
            <mxPoint x="-445" y="1778" as="sourcePoint" />
            <mxPoint x="174.49999999999955" y="1778" as="targetPoint" />
          </mxGeometry>
        </mxCell>
        <mxCell id="e9kwcE6qGJaGFsyXPlPn-138" value="&quot;call&quot;" style="text;html=1;align=center;verticalAlign=middle;resizable=0;points=[];autosize=1;strokeColor=none;fillColor=none;fontSize=13;fontStyle=2" vertex="1" parent="1">
          <mxGeometry x="-415" y="1748" width="50" height="30" as="geometry" />
        </mxCell>
        <mxCell id="e9kwcE6qGJaGFsyXPlPn-139" value="&quot;call&quot;" style="text;html=1;align=center;verticalAlign=middle;resizable=0;points=[];autosize=1;strokeColor=none;fillColor=none;fontSize=13;fontStyle=2" vertex="1" parent="1">
          <mxGeometry x="-400" y="1190" width="50" height="30" as="geometry" />
        </mxCell>
        <mxCell id="e9kwcE6qGJaGFsyXPlPn-141" value="show successful&amp;nbsp;&lt;div&gt;message&lt;/div&gt;" style="html=1;align=left;spacingLeft=2;endArrow=block;rounded=0;edgeStyle=orthogonalEdgeStyle;curved=0;rounded=0;fontSize=13;fontStyle=2" edge="1" parent="1">
          <mxGeometry relative="1" as="geometry">
            <mxPoint x="180" y="1800" as="sourcePoint" />
            <Array as="points">
              <mxPoint x="210" y="1830" />
            </Array>
            <mxPoint x="185" y="1830.0588235294122" as="targetPoint" />
          </mxGeometry>
        </mxCell>
        <mxCell id="e9kwcE6qGJaGFsyXPlPn-142" value="" style="endArrow=classic;html=1;rounded=0;" edge="1" parent="1" target="e9kwcE6qGJaGFsyXPlPn-136">
          <mxGeometry width="50" height="50" relative="1" as="geometry">
            <mxPoint x="-445" y="1778" as="sourcePoint" />
            <mxPoint x="174.49999999999955" y="1778" as="targetPoint" />
          </mxGeometry>
        </mxCell>
        <mxCell id="e9kwcE6qGJaGFsyXPlPn-136" value="" style="html=1;points=[[0,0,0,0,5],[0,1,0,0,-5],[1,0,0,0,5],[1,1,0,0,-5]];perimeter=orthogonalPerimeter;outlineConnect=0;targetShapes=umlLifeline;portConstraint=eastwest;newEdgeStyle={&quot;curved&quot;:0,&quot;rounded&quot;:0};strokeColor=#000000;fillColor=#dae8fc;" vertex="1" parent="1">
          <mxGeometry x="-445" y="1748" width="10" height="50" as="geometry" />
        </mxCell>
      </root>
    </mxGraphModel>
  </diagram>
</mxfile>
